<svg id="svg" version="1.1" width="524" height="500" xmlns="http://www.w3.org/2000/svg" xmlns:xlink="http://www.w3.org/1999/xlink" style="display: block;"><g id="svgg"><path id="path0" d="M0.000 190.840 L 0.000 381.679 200.000 381.679 L 400.000 381.679 400.000 190.840 L 400.000 0.000 200.000 0.000 L 0.000 0.000 0.000 190.840 M200.000 13.358 C 210.417 14.432,226.221 17.746,227.824 19.193 C 228.223 19.553,229.023 19.847,229.602 19.847 C 235.826 19.847,260.360 35.270,272.002 46.502 C 334.870 107.150,313.367 215.086,232.443 245.074 C 222.536 248.745,214.751 250.633,203.817 252.015 C 195.270 253.096,195.805 251.573,198.963 265.840 C 199.875 269.959,197.564 268.395,186.702 257.538 C 182.439 253.277,181.654 252.814,177.844 252.315 L 173.664 251.767 180.112 258.303 C 183.659 261.898,186.393 265.006,186.188 265.211 C 185.803 265.596,166.471 252.840,164.593 250.961 C 164.012 250.380,161.521 249.439,159.058 248.870 C 156.595 248.301,154.237 247.580,153.817 247.268 C 153.397 246.957,151.679 246.464,150.000 246.174 C 146.761 245.614,157.152 254.122,164.097 257.716 C 165.581 258.483,167.996 259.931,169.466 260.934 L 172.137 262.756 168.356 262.287 C 166.277 262.030,163.529 261.481,162.250 261.068 C 160.970 260.655,156.489 259.228,152.290 257.896 C 108.188 243.907,83.180 220.082,82.148 191.072 C 81.981 186.385,81.442 183.311,80.365 180.916 C 70.505 158.973,67.651 125.221,73.900 104.462 C 74.323 103.058,75.276 99.847,76.019 97.328 C 76.761 94.809,77.652 92.422,77.997 92.023 C 78.343 91.624,78.626 90.871,78.626 90.351 C 78.626 88.618,84.545 76.619,88.598 70.135 C 102.822 47.378,125.193 28.768,148.092 20.641 C 149.561 20.120,151.450 19.394,152.290 19.029 C 156.330 17.272,170.067 14.360,178.626 13.445 C 183.874 12.884,188.340 12.378,188.550 12.321 C 188.760 12.264,193.912 12.730,200.000 13.358 M177.481 22.866 C 169.179 23.706,157.159 26.696,150.000 29.701 C 142.029 33.047,127.264 41.249,125.191 43.482 C 124.981 43.708,123.092 45.248,120.992 46.904 C 103.115 61.007,87.690 85.458,82.922 107.252 C 82.279 110.191,81.357 114.415,80.873 116.638 C 79.690 122.076,79.727 143.648,80.931 150.131 C 83.028 161.424,86.291 171.856,86.250 167.137 C 86.212 162.645,106.932 130.323,110.604 129.148 C 111.815 128.761,111.730 129.354,109.320 138.168 C 102.883 161.713,104.824 186.758,114.604 206.360 C 121.410 220.001,124.504 223.182,138.386 230.816 C 143.985 233.895,144.169 233.258,139.182 228.053 C 113.557 201.308,105.789 166.592,119.278 139.101 C 126.163 125.068,143.419 112.098,170.229 100.805 C 186.522 93.942,203.491 84.546,210.523 78.494 C 214.044 75.463,214.805 75.806,212.889 79.563 C 208.656 87.860,196.960 100.827,181.679 114.165 C 174.046 120.827,158.321 136.964,156.057 140.458 C 154.833 142.347,153.629 144.065,153.382 144.275 C 150.900 146.386,145.656 159.980,143.914 168.819 C 138.678 195.398,153.202 238.960,168.083 241.312 C 173.269 242.132,173.287 242.511,167.733 234.204 C 150.940 209.086,145.939 183.186,153.464 160.305 C 158.708 144.364,165.894 134.949,187.786 115.340 C 235.156 72.910,241.145 40.925,202.867 34.797 C 195.573 33.630,195.175 33.282,199.787 32.103 C 201.794 31.590,204.278 30.831,205.307 30.416 C 206.337 30.002,211.420 29.462,216.602 29.218 C 221.784 28.973,225.751 28.501,225.417 28.170 C 224.809 27.568,223.242 27.134,211.832 24.408 C 204.746 22.715,186.890 21.914,177.481 22.866 M251.985 44.005 C 258.559 53.559,260.169 68.523,256.256 83.687 C 251.951 100.367,246.753 108.337,227.855 127.233 C 212.466 142.619,208.812 146.751,205.838 152.126 C 202.956 157.335,202.847 157.252,212.558 157.252 C 224.672 157.252,233.303 159.809,239.993 165.380 C 242.924 167.822,248.855 176.164,248.855 177.846 C 248.855 178.527,249.159 179.410,249.532 179.809 C 251.313 181.718,252.687 197.710,251.069 197.710 C 250.608 197.710,248.289 196.516,245.917 195.056 C 233.668 187.520,219.499 187.350,210.338 194.631 C 205.098 198.795,197.710 210.240,197.710 214.193 C 197.710 214.839,197.373 215.998,196.961 216.768 C 195.831 218.879,194.392 236.033,195.003 240.106 L 195.538 243.677 200.632 243.181 C 261.695 237.242,306.776 180.628,298.842 119.847 C 297.402 108.814,297.322 108.584,295.534 110.202 C 291.857 113.530,285.373 115.142,272.086 116.032 C 259.568 116.871,253.038 118.066,248.695 120.312 C 246.039 121.685,246.349 120.578,250.315 114.519 C 259.731 100.134,270.291 95.338,284.971 98.781 C 291.342 100.275,294.967 100.376,294.447 99.046 C 294.241 98.521,293.009 95.344,291.708 91.985 C 290.407 88.626,287.790 83.157,285.892 79.832 C 283.995 76.506,282.443 73.669,282.443 73.526 C 282.443 70.926,263.807 50.657,255.623 44.357 C 249.385 39.554,248.890 39.506,251.985 44.005 M131.097 70.802 C 131.136 74.607,133.523 84.061,135.923 89.921 C 139.438 98.504,135.101 110.219,124.631 120.420 C 119.220 125.693,117.834 126.319,118.718 123.092 C 119.773 119.240,119.990 105.820,119.128 97.710 C 117.855 85.738,119.728 78.149,125.863 70.420 C 130.047 65.147,131.039 65.219,131.097 70.802 M256.870 127.065 C 259.809 127.675,264.275 128.732,266.794 129.415 C 274.710 131.561,278.868 132.114,283.397 131.623 C 287.977 131.127,288.540 131.417,286.658 133.298 C 286.038 133.919,285.093 135.031,284.559 135.770 C 283.029 137.886,275.614 143.469,272.592 144.780 C 266.955 147.225,264.038 147.566,244.656 148.050 C 226.770 148.497,224.401 148.709,220.683 150.199 C 215.157 152.413,214.643 151.765,218.292 147.183 C 232.004 129.961,243.055 124.198,256.870 127.065 M207.634 321.456 C 207.634 364.228,207.587 365.649,206.196 365.649 C 204.109 365.649,203.839 363.756,203.827 349.068 C 203.816 334.862,204.167 336.563,198.798 324.694 C 198.200 323.371,197.710 322.084,197.710 321.834 C 197.710 321.585,196.570 318.889,195.176 315.843 C 193.783 312.797,191.137 306.613,189.296 302.099 C 187.455 297.586,185.679 293.893,185.349 293.893 C 185.018 293.893,184.659 309.952,184.550 329.580 C 184.354 364.692,184.327 365.267,182.824 365.267 C 181.316 365.267,181.298 364.758,181.298 323.282 C 181.298 282.080,181.326 281.298,182.795 281.298 C 184.393 281.298,185.144 282.465,188.199 289.695 C 189.263 292.214,190.464 294.871,190.868 295.600 C 191.272 296.329,191.603 297.250,191.603 297.646 C 191.603 298.043,192.634 300.593,193.893 303.314 C 195.153 306.036,196.183 308.454,196.183 308.689 C 196.183 308.923,197.062 311.100,198.135 313.527 C 199.209 315.954,200.411 318.712,200.807 319.656 C 203.472 326.016,203.421 326.321,203.817 301.836 C 204.199 278.190,204.432 276.034,206.513 276.833 C 207.480 277.204,207.634 283.306,207.634 321.456 M94.377 281.617 C 100.575 285.396,103.033 291.869,103.045 304.439 C 103.054 313.220,102.630 314.992,99.772 318.130 L 98.207 319.847 99.743 321.565 C 102.835 325.021,103.090 327.059,102.877 346.566 C 102.678 364.690,102.625 365.267,101.145 365.267 C 99.668 365.267,99.606 364.631,99.237 345.671 C 98.763 321.363,99.031 321.951,88.582 322.301 L 82.061 322.519 81.679 343.511 C 81.352 361.493,81.133 364.504,80.153 364.504 C 79.168 364.504,78.979 361.596,78.805 343.723 C 78.611 323.888,78.533 322.904,77.087 322.131 C 75.136 321.087,75.143 319.374,77.099 318.863 C 78.575 318.477,78.626 317.822,78.626 299.308 L 78.626 280.153 85.305 280.156 C 90.534 280.158,92.504 280.475,94.377 281.617 M336.119 281.009 C 345.475 285.816,349.939 309.326,343.049 317.514 C 340.968 319.987,341.014 320.264,344.039 323.479 C 346.609 326.212,346.473 365.267,343.893 365.267 C 342.416 365.267,342.354 364.631,341.985 345.671 C 341.514 321.524,341.786 322.137,331.546 322.137 L 325.191 322.137 325.191 342.221 C 325.191 357.863,324.963 362.615,324.162 363.711 C 321.742 367.020,321.374 364.398,321.374 343.841 C 321.374 324.594,321.303 323.588,319.847 322.342 C 319.008 321.623,318.321 320.636,318.321 320.148 C 318.321 319.661,319.008 319.082,319.847 318.863 C 321.323 318.477,321.374 317.822,321.374 299.308 L 321.374 280.153 327.913 280.153 C 331.509 280.153,335.202 280.538,336.119 281.009 M126.994 281.636 C 136.642 283.875,137.738 288.087,138.019 324.018 C 138.280 357.346,138.393 356.154,134.580 360.374 C 130.463 364.930,128.566 365.649,120.649 365.649 L 113.740 365.649 113.740 323.728 C 113.740 290.905,113.948 281.723,114.695 281.422 C 116.290 280.778,123.863 280.910,126.994 281.636 M275.925 281.945 C 278.817 284.060,276.509 284.733,266.367 284.733 L 256.489 284.733 256.489 302.259 L 256.489 319.786 262.778 320.007 C 268.056 320.193,269.108 320.444,269.322 321.565 C 269.549 322.753,268.854 322.901,263.033 322.901 L 256.489 322.901 256.489 343.067 C 256.489 364.361,256.358 365.649,254.206 365.649 C 252.123 365.649,251.930 363.699,251.919 342.557 C 251.910 325.598,251.751 322.901,250.763 322.901 C 250.134 322.901,249.618 322.375,249.618 321.732 C 249.618 321.089,250.134 320.365,250.763 320.123 C 251.737 319.750,251.908 316.959,251.908 301.500 C 251.908 285.986,252.085 283.139,253.108 282.116 C 254.728 280.496,273.748 280.354,275.925 281.945 M37.400 318.511 C 37.398 342.832,37.112 356.366,36.561 358.353 C 33.481 369.443,17.347 367.722,13.215 355.863 C 11.912 352.121,11.966 350.640,13.428 350.079 C 15.281 349.368,15.979 350.173,16.538 353.665 C 17.861 361.939,29.509 365.370,32.676 358.418 C 33.343 356.955,33.588 346.509,33.588 319.557 C 33.588 281.863,33.599 281.679,36.005 281.679 C 37.343 281.679,37.404 283.303,37.400 318.511 M160.619 283.397 C 160.889 284.342,161.606 288.721,162.211 293.130 C 162.817 297.538,163.659 303.550,164.083 306.489 C 164.507 309.427,165.365 315.439,165.989 319.847 C 166.614 324.256,167.676 331.641,168.349 336.260 C 169.021 340.878,169.854 346.718,170.198 349.237 C 172.644 367.106,172.655 367.237,171.717 368.367 C 170.232 370.157,168.937 368.375,168.480 363.915 C 167.978 359.006,165.714 344.245,165.263 342.939 C 165.039 342.290,163.106 341.985,159.219 341.985 L 153.504 341.985 153.128 344.466 C 152.921 345.830,152.556 348.951,152.316 351.401 C 151.172 363.084,150.250 367.176,148.762 367.176 C 146.929 367.176,146.847 362.985,148.469 352.224 C 149.890 342.794,149.890 341.985,148.473 341.985 C 147.837 341.985,147.328 341.306,147.328 340.458 C 147.328 339.618,147.810 338.931,148.399 338.931 C 149.778 338.931,151.143 334.992,151.151 330.993 C 151.154 329.271,151.498 325.760,151.915 323.190 C 152.672 318.527,153.580 311.084,154.979 298.092 C 156.601 283.016,158.840 277.182,160.619 283.397 M360.887 282.634 C 361.310 283.158,361.908 284.790,362.215 286.260 C 362.523 287.729,362.980 289.275,363.232 289.695 C 363.483 290.115,365.785 296.775,368.348 304.496 C 372.690 317.575,373.065 318.384,373.839 316.329 C 374.296 315.115,377.020 306.908,379.892 298.092 C 387.842 273.690,387.806 273.607,387.701 316.165 C 387.596 358.768,387.253 365.267,385.115 365.267 C 383.607 365.267,383.591 364.857,383.885 332.252 C 384.048 314.094,383.995 299.237,383.767 299.237 C 383.539 299.237,381.587 304.819,379.430 311.641 C 373.170 331.435,373.210 331.433,366.881 312.030 C 364.314 304.162,361.960 297.721,361.649 297.717 C 361.339 297.713,360.995 312.910,360.886 331.489 C 360.690 364.692,360.661 365.267,359.160 365.267 C 357.655 365.267,357.631 364.692,357.435 324.427 C 357.230 282.228,357.251 281.679,359.043 281.679 C 359.634 281.679,360.464 282.109,360.887 282.634 M64.963 284.176 C 70.259 287.713,70.226 287.468,70.228 323.885 C 70.229 355.259,70.167 356.670,68.671 359.602 C 64.691 367.405,53.135 367.866,47.476 360.449 L 45.420 357.755 45.197 325.824 C 45.045 303.895,45.226 293.893,45.776 293.893 C 46.301 293.893,46.268 293.396,45.678 292.453 C 41.886 286.380,57.946 279.487,64.963 284.176 M307.712 284.188 C 312.931 287.699,312.904 287.488,312.904 324.046 C 312.904 360.604,312.931 360.393,307.712 363.904 C 302.542 367.382,293.796 365.524,289.950 360.132 L 288.168 357.634 288.168 325.954 L 288.168 294.275 289.885 294.031 L 291.603 293.787 291.603 324.643 C 291.603 355.429,291.607 355.505,293.330 358.062 C 296.875 363.323,305.541 363.295,308.202 358.015 C 308.940 356.550,309.119 348.444,308.971 323.112 L 308.779 290.118 307.040 288.379 C 303.522 284.863,294.244 286.471,291.900 291.004 C 290.721 293.284,288.970 293.800,288.304 292.063 C 285.880 285.748,300.944 279.635,307.712 284.188 M82.634 283.712 C 81.909 284.004,81.679 288.310,81.679 301.590 L 81.679 319.084 86.166 319.084 C 97.130 319.084,99.518 316.032,99.074 302.584 C 98.575 287.469,92.007 279.929,82.634 283.712 M325.700 283.715 C 325.420 283.995,325.191 292.067,325.191 301.654 L 325.191 319.084 329.296 319.084 C 340.590 319.084,345.002 309.721,341.275 293.663 C 339.612 286.502,329.422 279.993,325.700 283.715 M117.366 285.169 C 116.080 286.475,116.700 361.633,118.001 362.132 C 122.458 363.842,129.525 361.463,132.427 357.275 L 134.448 354.358 134.209 324.317 C 133.947 291.459,133.892 291.058,129.046 286.675 C 127.328 285.121,118.531 283.987,117.366 285.169 M54.612 286.778 C 51.238 287.722,45.634 293.893,48.150 293.893 C 48.569 293.893,48.855 306.504,48.855 325.029 L 48.855 356.165 50.954 358.662 C 55.001 363.476,62.607 363.159,65.240 358.068 C 67.399 353.893,66.635 290.722,64.398 288.486 C 62.738 286.827,57.625 285.934,54.612 286.778 M158.581 302.290 C 158.328 303.760,157.735 308.053,157.265 311.832 C 156.794 315.611,156.096 321.107,155.713 324.046 C 155.330 326.985,154.793 331.365,154.519 333.779 L 154.023 338.168 159.549 338.168 L 165.076 338.168 164.549 335.687 C 164.070 333.433,163.048 326.570,160.995 311.832 C 160.585 308.893,159.978 304.943,159.646 303.053 L 159.043 299.618 158.581 302.290 " stroke="none" fill="#ffffff" fill-rule="evenodd"></path><path id="path1" d="M210.242 30.539 C 203.590 31.453,197.131 33.461,200.606 33.535 C 219.450 33.933,231.854 47.702,227.832 63.756 C 223.775 79.949,215.820 89.917,178.989 124.962 C 165.370 137.920,160.696 144.157,156.503 154.962 C 155.118 158.531,153.714 162.137,153.384 162.977 C 146.454 180.586,153.154 210.667,169.494 235.299 C 175.002 243.603,174.379 243.274,185.921 243.971 L 194.275 244.475 194.373 233.803 C 194.511 218.802,196.677 210.764,203.195 201.064 C 206.353 196.364,214.221 190.076,216.944 190.076 C 217.652 190.076,218.443 189.733,218.702 189.313 C 220.909 185.743,238.807 189.463,248.664 195.541 L 251.145 197.071 251.145 193.090 C 251.145 171.202,236.249 158.015,211.524 158.015 C 206.445 158.015,202.290 157.804,202.290 157.546 C 202.290 153.589,211.096 142.553,225.717 128.188 C 241.862 112.325,253.435 96.464,253.435 90.201 C 253.435 89.701,253.759 88.696,254.155 87.967 C 258.599 79.778,258.150 57.462,253.350 47.955 C 249.328 39.987,238.629 31.298,232.840 31.298 C 231.992 31.298,231.296 31.040,231.295 30.725 C 231.290 29.913,215.794 29.776,210.242 30.539 M126.165 71.256 C 120.163 79.230,119.779 81.864,120.642 109.160 C 120.900 117.324,120.735 120.680,120.011 121.947 C 118.156 125.195,120.426 123.654,125.744 118.056 C 135.712 107.562,137.941 99.123,133.969 86.908 C 131.071 77.998,129.771 72.820,129.771 70.192 C 129.771 67.174,129.085 67.377,126.165 71.256 M204.422 83.904 C 200.347 86.669,195.194 89.863,192.972 91.001 C 187.527 93.791,167.923 103.053,167.464 103.053 C 165.589 103.053,144.559 114.477,138.550 118.761 C 116.730 134.312,107.816 163.517,116.781 190.076 C 119.537 198.239,125.913 210.506,130.273 216.031 C 143.145 232.342,146.561 235.457,154.533 238.152 C 162.816 240.952,162.553 241.400,157.298 233.454 C 152.749 226.575,148.480 218.298,147.617 214.687 C 147.342 213.536,146.870 212.252,146.567 211.832 C 146.002 211.048,144.206 203.101,142.786 195.102 C 137.520 165.425,148.821 141.176,180.532 114.102 C 192.735 103.684,205.853 89.604,210.979 81.422 C 212.977 78.233,212.534 78.401,204.422 83.904 M269.719 99.164 C 263.906 100.648,258.558 104.905,252.869 112.579 C 248.228 118.839,247.522 120.206,249.470 119.164 C 253.346 117.089,258.408 116.085,267.176 115.653 C 288.816 114.586,297.689 111.324,296.359 104.923 L 295.754 102.008 289.671 100.685 C 282.143 99.047,272.930 98.345,269.719 99.164 M243.398 128.293 C 237.477 129.693,231.607 133.848,223.539 142.349 C 219.341 146.772,215.165 152.618,217.636 150.612 C 220.163 148.561,226.306 147.823,245.038 147.319 C 269.376 146.665,273.180 145.595,282.131 136.892 L 285.878 133.248 279.389 132.711 C 275.821 132.416,271.011 131.602,268.702 130.903 C 258.139 127.704,249.610 126.824,243.398 128.293 M105.634 136.072 C 97.350 146.499,93.454 152.742,88.725 163.172 L 85.522 170.238 87.099 174.241 C 90.166 182.026,95.808 192.015,101.200 199.207 C 108.099 208.411,125.709 225.789,119.974 217.735 C 108.564 201.711,102.178 173.599,105.388 153.523 C 106.728 145.139,108.515 136.387,109.345 134.136 C 110.675 130.533,109.580 131.104,105.634 136.072 M82.443 188.213 C 82.443 215.253,103.607 238.479,141.776 253.323 C 146.069 254.993,150.695 256.604,152.056 256.903 C 153.417 257.202,155.057 257.719,155.700 258.054 C 157.163 258.813,165.760 261.069,167.194 261.069 C 167.778 261.069,165.394 259.265,161.895 257.061 C 151.440 250.476,145.794 246.360,144.814 244.610 C 144.481 244.015,141.046 241.948,137.181 240.016 C 115.253 229.055,94.059 208.598,85.277 189.917 C 83.380 185.881,82.443 185.317,82.443 188.213 M171.023 254.515 C 180.610 261.474,181.892 261.904,176.718 256.425 C 170.907 250.273,171.102 250.407,167.969 250.393 C 165.336 250.382,165.345 250.395,171.023 254.515 M183.986 253.435 C 184.599 254.541,189.554 259.379,195.725 264.896 C 197.922 266.860,198.553 267.157,198.132 266.031 C 197.818 265.191,197.091 261.927,196.517 258.779 C 195.943 255.630,195.461 252.994,195.446 252.921 C 195.432 252.848,192.705 252.676,189.386 252.539 C 184.204 252.325,183.441 252.452,183.986 253.435 " stroke="none" fill="#f68712" fill-rule="evenodd"></path><path id="path2" d="M216.589 29.145 C 211.229 29.456,206.248 30.070,205.521 30.510 C 204.562 31.089,205.353 31.150,208.397 30.731 C 210.706 30.413,216.632 30.170,221.565 30.190 C 226.498 30.211,230.534 30.159,230.534 30.074 C 230.534 29.091,224.474 28.687,216.589 29.145 M198.473 32.409 C 195.370 33.565,195.762 33.745,204.198 35.040 C 214.183 36.573,222.621 41.599,225.541 47.752 C 226.260 49.266,227.032 50.322,227.257 50.096 C 227.845 49.509,224.134 43.424,222.019 41.508 C 217.701 37.598,207.196 33.683,200.606 33.529 L 198.092 33.470 201.145 32.464 C 202.824 31.911,203.511 31.448,202.672 31.436 C 201.832 31.424,199.943 31.862,198.473 32.409 M248.070 40.267 C 256.802 51.491,259.575 65.461,256.071 80.570 C 255.421 83.371,255.023 86.054,255.185 86.533 C 255.981 88.890,258.282 74.504,258.280 67.176 C 258.278 55.804,252.560 40.516,247.597 38.612 C 246.785 38.300,246.927 38.797,248.070 40.267 M227.546 56.870 C 227.447 63.768,226.648 66.624,221.994 76.718 L 221.290 78.244 222.553 76.718 C 226.761 71.631,229.972 58.065,228.244 52.672 C 227.820 51.347,227.606 52.631,227.546 56.870 M125.863 70.420 C 119.728 78.149,117.855 85.738,119.128 97.710 C 119.990 105.820,119.773 119.240,118.718 123.092 C 116.845 129.927,131.808 114.435,135.413 105.806 C 136.788 102.515,137.090 92.740,135.903 89.921 C 135.497 88.957,134.408 85.595,133.483 82.451 C 132.558 79.306,131.667 77.138,131.502 77.632 C 131.337 78.125,132.292 81.833,133.624 85.870 C 137.997 99.125,136.007 107.251,125.744 118.056 C 120.426 123.654,118.156 125.195,120.011 121.947 C 120.735 120.680,120.900 117.324,120.642 109.160 C 119.779 81.864,120.163 79.230,126.165 71.256 C 129.197 67.228,129.756 67.158,129.825 70.802 C 129.854 72.376,130.161 74.351,130.506 75.191 C 130.917 76.192,131.116 74.943,131.083 71.565 C 131.021 65.171,130.176 64.985,125.863 70.420 M210.523 78.494 C 207.504 81.093,201.509 85.226,197.328 87.592 C 193.927 89.517,172.643 100.000,172.137 100.000 C 171.173 100.000,157.094 106.967,157.413 107.286 C 157.622 107.495,159.885 106.628,162.442 105.360 C 164.998 104.091,167.246 103.053,167.436 103.053 C 167.888 103.053,184.361 95.302,191.221 91.862 C 194.160 90.388,200.086 86.826,204.389 83.947 C 208.693 81.067,212.214 78.876,212.214 79.077 C 212.214 82.470,194.009 102.597,180.532 114.102 C 152.381 138.136,141.988 156.403,141.986 181.856 C 141.985 189.827,143.034 199.189,144.363 203.053 C 145.218 205.544,144.344 196.034,143.422 192.817 C 141.374 185.677,143.410 166.537,147.287 156.489 C 148.918 152.259,152.550 144.983,153.382 144.275 C 153.629 144.065,154.833 142.347,156.057 140.458 C 158.321 136.964,174.046 120.827,181.679 114.165 C 196.960 100.827,208.656 87.860,212.889 79.563 C 214.805 75.806,214.044 75.463,210.523 78.494 M215.400 86.235 C 209.046 94.783,199.429 104.920,187.786 115.340 C 172.426 129.088,157.274 146.079,158.913 147.717 C 159.126 147.930,160.986 145.503,163.047 142.325 C 165.693 138.244,170.378 133.138,178.989 124.952 C 201.205 103.831,211.853 92.826,216.686 85.987 C 223.185 76.792,222.290 76.965,215.400 86.235 M253.992 88.247 C 253.686 88.554,253.435 89.323,253.435 89.957 C 253.435 96.464,242.118 112.073,225.717 128.188 C 211.096 142.553,202.290 153.589,202.290 157.546 C 202.290 157.804,206.445 158.015,211.524 158.015 C 223.555 158.015,230.330 159.814,237.983 165.038 C 243.780 168.996,247.052 174.423,250.318 185.496 C 251.046 187.963,251.073 187.876,250.681 184.351 C 250.447 182.252,249.941 180.208,249.556 179.809 C 249.170 179.410,248.855 178.527,248.855 177.846 C 248.855 176.164,242.924 167.822,239.993 165.380 C 233.303 159.809,224.672 157.252,212.558 157.252 C 202.847 157.252,202.956 157.335,205.838 152.126 C 208.812 146.751,212.466 142.619,227.855 127.233 C 242.685 112.405,248.532 104.755,252.801 94.596 C 254.861 89.692,255.395 86.844,253.992 88.247 M267.708 98.812 C 261.705 100.953,254.423 107.738,249.308 115.956 C 246.088 121.129,246.215 121.338,251.317 119.277 C 254.367 118.045,258.549 117.183,263.653 116.735 C 267.900 116.362,272.920 115.921,274.809 115.755 C 276.698 115.590,273.567 115.597,267.850 115.771 C 260.072 116.008,256.434 116.461,253.396 117.572 C 248.110 119.504,248.037 119.276,252.115 113.585 C 262.105 99.645,271.258 96.233,287.786 100.287 C 293.619 101.718,294.656 101.790,294.656 100.763 C 294.656 100.344,293.540 99.988,292.176 99.973 C 290.811 99.958,287.634 99.448,285.115 98.840 C 279.408 97.462,271.529 97.449,267.708 98.812 M149.618 110.828 C 134.778 118.921,124.475 128.520,119.270 139.101 C 116.079 145.588,113.330 155.150,113.918 157.716 C 114.100 158.510,114.515 157.443,114.839 155.344 C 117.834 135.991,130.289 121.505,154.389 109.344 C 156.427 108.316,157.084 107.596,155.916 107.670 C 155.601 107.690,152.767 109.111,149.618 110.828 M295.902 108.997 C 295.093 110.307,287.915 113.343,283.588 114.205 C 279.626 114.994,279.393 115.128,281.862 115.192 C 285.242 115.281,293.953 111.967,295.850 109.871 C 296.583 109.060,296.978 108.397,296.728 108.397 C 296.478 108.397,296.106 108.667,295.902 108.997 M244.117 127.127 C 235.329 129.531,227.514 135.600,218.292 147.183 C 214.709 151.682,215.157 152.397,220.301 150.389 C 222.361 149.584,223.359 148.912,222.519 148.895 C 221.679 148.878,220.037 149.363,218.869 149.972 L 216.747 151.079 217.977 148.995 C 219.376 146.627,226.441 139.035,230.767 135.252 C 238.415 128.563,247.627 126.432,259.924 128.507 C 265.828 129.503,263.398 128.220,257.109 127.021 C 250.613 125.782,248.984 125.795,244.117 127.127 M105.110 135.305 C 95.602 147.534,87.534 161.266,85.938 167.939 C 85.452 169.968,85.661 169.578,91.050 158.397 C 96.902 146.253,112.514 125.551,109.345 134.136 C 108.515 136.387,106.728 145.139,105.388 153.523 C 104.442 159.439,104.394 172.342,105.302 176.718 C 105.703 178.653,105.794 176.417,105.549 170.611 C 105.125 160.555,106.549 148.304,109.320 138.168 C 112.472 126.642,112.062 126.364,105.110 135.305 M264.234 129.369 C 265.308 130.454,273.242 132.203,279.389 132.711 L 285.878 133.248 282.131 136.892 C 273.068 145.704,267.090 147.324,243.563 147.340 C 234.088 147.346,225.938 147.604,225.452 147.912 C 223.972 148.852,260.320 148.180,264.885 147.184 C 272.248 145.577,281.242 140.359,284.559 135.770 C 285.093 135.031,286.038 133.919,286.658 133.298 C 288.355 131.602,288.337 131.597,280.344 131.588 C 276.250 131.583,272.214 131.217,271.374 130.775 C 269.587 129.835,263.509 128.638,264.234 129.369 M156.623 152.025 C 154.486 156.761,152.553 162.732,153.010 163.188 C 153.224 163.402,153.597 162.927,153.839 162.132 C 154.081 161.337,155.279 158.128,156.502 154.999 C 158.935 148.778,159.019 146.716,156.623 152.025 M112.862 164.468 C 112.101 172.588,115.610 194.568,117.383 192.795 C 117.600 192.578,117.246 190.933,116.596 189.139 C 114.855 184.333,114.373 180.896,113.840 169.466 C 113.389 159.808,113.328 159.494,112.862 164.468 M151.285 168.852 C 149.617 178.960,149.478 182.082,150.382 189.212 C 150.895 193.256,151.622 197.424,151.998 198.473 C 152.511 199.905,152.581 199.524,152.277 196.947 C 151.146 187.350,150.998 178.117,151.872 171.716 C 152.952 163.814,152.490 161.555,151.285 168.852 M106.251 182.443 C 106.231 183.912,106.509 185.802,106.870 186.641 C 107.743 188.671,107.743 185.490,106.870 182.061 L 106.288 179.771 106.251 182.443 M81.872 188.931 C 81.880 190.611,82.037 191.208,82.219 190.258 C 82.402 189.309,82.395 187.935,82.204 187.205 C 82.013 186.475,81.863 187.252,81.872 188.931 M107.685 189.501 C 107.528 193.548,116.625 213.778,120.685 218.410 C 122.902 220.940,122.896 220.908,120.354 216.794 C 116.440 210.457,111.900 200.935,110.346 195.802 C 108.373 189.282,107.751 187.810,107.685 189.501 M218.702 189.313 C 218.443 189.733,217.652 190.076,216.944 190.076 C 210.591 190.076,196.125 208.560,196.195 216.588 C 196.211 218.440,197.681 216.235,197.698 214.334 C 197.735 210.209,205.015 198.861,210.338 194.631 C 219.499 187.350,233.668 187.520,245.917 195.056 C 251.737 198.637,251.934 198.566,251.764 192.939 L 251.620 188.168 251.343 192.595 L 251.067 197.023 248.625 195.517 C 245.138 193.367,239.006 190.449,235.824 189.426 C 232.474 188.349,219.352 188.262,218.702 189.313 M82.525 195.041 C 82.205 206.914,92.344 223.626,106.933 235.272 C 111.989 239.309,124.350 246.897,124.927 246.319 C 125.150 246.096,124.184 245.329,122.781 244.614 C 101.668 233.854,87.007 216.170,83.579 197.328 C 82.768 192.869,82.594 192.490,82.525 195.041 M117.557 194.677 C 117.557 200.301,136.758 227.567,145.487 234.338 C 147.405 235.825,145.088 232.925,141.558 229.418 C 139.632 227.504,134.866 221.851,130.273 216.031 C 126.657 211.448,119.084 197.608,119.084 195.582 C 119.084 195.123,118.740 194.534,118.321 194.275 C 117.901 194.015,117.557 194.196,117.557 194.677 M153.108 203.053 C 153.384 204.523,153.929 206.240,154.319 206.870 C 154.790 207.631,154.860 207.119,154.526 205.344 C 154.249 203.874,153.704 202.156,153.314 201.527 C 152.843 200.766,152.774 201.278,153.108 203.053 M145.476 208.015 C 145.730 209.695,146.204 211.412,146.528 211.832 C 146.852 212.252,147.355 213.586,147.645 214.797 C 148.955 220.269,160.809 240.458,162.712 240.458 C 163.142 240.458,162.630 239.431,161.574 238.176 C 156.822 232.529,150.166 220.081,147.690 212.214 C 145.695 205.871,144.933 204.426,145.476 208.015 M155.000 208.874 C 154.959 209.788,157.587 216.012,160.896 222.840 C 161.999 225.115,165.066 230.214,167.710 234.170 C 170.355 238.125,172.519 241.674,172.519 242.055 C 172.519 242.436,172.863 242.748,173.282 242.748 C 174.447 242.748,174.388 242.635,169.057 234.609 C 164.584 227.875,161.437 222.022,156.607 211.450 C 155.744 209.561,155.021 208.402,155.000 208.874 M195.170 220.003 C 194.168 224.065,193.695 241.002,194.545 242.438 C 195.226 243.589,195.311 243.015,194.952 239.695 C 194.702 237.385,194.877 231.746,195.340 227.162 C 196.150 219.151,196.082 216.308,195.170 220.003 M145.038 244.963 C 145.038 246.285,166.844 260.891,167.636 260.099 C 167.857 259.879,166.555 258.953,164.744 258.042 C 160.565 255.940,147.195 246.190,147.741 245.643 C 147.967 245.417,147.452 245.049,146.595 244.825 C 145.739 244.601,145.038 244.663,145.038 244.963 M126.292 247.257 C 126.958 248.334,142.948 254.890,151.879 257.747 C 156.304 259.163,160.970 260.658,162.250 261.070 C 167.095 262.630,172.359 262.926,170.482 261.534 C 169.571 260.858,168.312 260.503,167.683 260.744 C 166.563 261.174,158.011 259.254,155.700 258.054 C 155.057 257.719,153.343 257.185,151.892 256.867 C 148.562 256.135,130.659 249.006,128.647 247.610 C 126.931 246.419,125.656 246.228,126.292 247.257 M164.885 250.915 C 164.885 251.724,185.709 265.690,186.193 265.206 C 186.681 264.719,173.915 251.908,172.942 251.908 C 172.526 251.908,174.236 254.030,176.741 256.623 C 181.657 261.710,180.665 261.387,171.756 254.998 C 165.513 250.521,164.885 250.148,164.885 250.915 M183.300 254.008 C 184.330 255.325,188.545 259.484,194.517 265.076 C 198.209 268.534,199.602 268.774,198.943 265.840 C 198.683 264.685,198.050 261.679,197.535 259.160 C 196.934 256.212,196.519 255.260,196.372 256.489 C 196.247 257.538,196.640 260.286,197.246 262.594 C 198.687 268.083,199.081 268.236,190.396 259.935 C 182.910 252.780,181.268 251.409,183.300 254.008 " stroke="none" fill="#f9bb79" fill-rule="evenodd"></path><path id="path3" d="M174.427 14.641 C 124.064 23.754,86.946 57.003,75.300 103.435 C 74.668 105.954,73.698 109.733,73.144 111.832 C 71.552 117.869,71.766 149.211,73.448 156.107 C 74.164 159.046,75.153 163.168,75.645 165.267 C 84.344 202.385,118.749 237.305,156.107 246.937 C 158.206 247.478,161.469 248.436,163.359 249.065 C 174.877 252.903,200.368 252.940,215.607 249.143 C 218.149 248.509,221.603 247.664,223.282 247.264 C 224.962 246.864,227.023 246.227,227.863 245.847 C 228.702 245.467,231.107 244.547,233.206 243.803 C 250.506 237.666,274.991 218.807,284.835 204.036 C 300.074 181.172,305.461 166.580,307.603 142.366 C 311.829 94.602,283.976 46.083,240.458 25.404 C 228.396 19.672,221.090 17.444,204.916 14.564 C 199.485 13.597,179.925 13.647,174.427 14.641 M211.069 23.146 C 226.276 26.763,232.430 29.248,246.947 37.637 C 266.711 49.060,283.977 69.914,293.474 93.834 C 294.544 96.530,295.420 99.347,295.420 100.092 C 295.420 100.838,296.262 104.128,297.291 107.403 C 300.866 118.777,301.434 144.367,298.372 156.107 C 293.107 176.295,288.090 187.186,277.757 200.860 C 271.224 209.505,252.755 226.718,250.013 226.718 C 249.812 226.718,247.838 227.868,245.626 229.274 C 238.597 233.741,229.381 237.610,217.176 241.218 C 206.661 244.326,190.000 244.926,172.136 242.840 C 139.462 239.024,104.348 212.416,89.911 180.534 C 84.607 168.821,83.967 167.243,82.739 162.834 C 65.527 101.052,106.247 35.119,168.870 23.372 C 172.347 22.720,175.878 22.023,176.718 21.824 C 179.954 21.056,206.594 22.081,211.069 23.146 M205.344 303.008 C 205.344 316.839,205.052 328.334,204.695 328.555 C 203.802 329.107,203.477 328.409,193.173 303.817 C 187.828 291.061,183.644 282.061,183.059 282.061 C 181.623 282.061,181.579 364.216,183.015 364.695 C 183.770 364.946,183.969 357.171,183.969 327.499 C 183.969 303.373,184.235 290.150,184.712 290.445 C 185.368 290.851,186.375 292.840,188.584 298.092 C 188.937 298.931,190.104 301.604,191.178 304.030 C 192.251 306.457,193.130 308.623,193.130 308.843 C 193.130 309.208,195.213 314.137,196.974 317.939 C 197.363 318.779,199.405 323.532,201.512 328.503 L 205.344 337.540 205.344 351.213 C 205.344 359.819,205.626 364.885,206.107 364.885 C 206.607 364.885,206.870 349.873,206.870 321.374 C 206.870 292.875,206.607 277.863,206.107 277.863 C 205.613 277.863,205.344 286.753,205.344 303.008 M79.389 299.591 C 79.389 317.486,79.325 318.301,77.863 319.084 C 76.110 320.022,75.832 321.374,77.392 321.374 C 79.143 321.374,79.368 323.984,79.379 344.466 C 79.385 356.843,79.668 364.122,80.141 364.122 C 80.610 364.122,80.968 356.188,81.095 342.939 L 81.298 321.756 88.669 321.538 L 96.041 321.320 97.830 323.828 C 99.562 326.257,99.630 326.934,100.000 345.357 C 100.286 359.619,100.620 364.458,101.336 364.696 C 102.082 364.943,102.290 361.015,102.290 346.722 C 102.290 327.498,102.043 325.819,98.562 321.405 C 97.175 319.648,97.163 319.453,98.369 318.352 C 101.706 315.306,102.290 313.283,102.286 304.798 C 102.277 287.620,97.478 280.916,85.190 280.916 L 79.389 280.916 79.389 299.591 M321.883 281.425 C 321.603 281.705,321.374 290.303,321.374 300.533 C 321.374 316.361,321.203 319.197,320.229 319.571 C 319.599 319.813,319.084 320.317,319.084 320.692 C 319.084 321.067,319.599 321.374,320.229 321.374 C 321.218 321.374,321.374 324.124,321.374 341.541 C 321.374 352.632,321.583 362.251,321.837 362.915 C 323.217 366.509,323.659 362.101,323.843 342.939 L 324.046 321.756 331.649 321.756 L 339.252 321.756 341.000 324.350 C 342.705 326.880,342.748 327.407,342.748 345.914 C 342.748 362.269,342.906 364.885,343.893 364.885 C 344.880 364.885,345.038 362.266,345.038 345.887 L 345.038 326.889 342.392 323.042 C 340.936 320.926,340.006 319.084,340.324 318.948 C 349.466 315.063,345.611 285.525,335.458 281.665 C 333.247 280.824,322.670 280.637,321.883 281.425 M34.957 319.311 L 34.733 356.991 32.599 359.787 C 27.809 366.066,17.060 362.471,15.729 354.145 C 15.163 350.604,13.740 350.123,13.740 353.473 C 13.740 365.973,33.231 369.260,35.818 357.196 C 36.874 352.273,36.961 282.730,35.912 282.082 C 35.453 281.798,35.099 295.605,34.957 319.311 M114.116 283.397 C 113.887 284.342,113.795 302.977,113.911 324.809 L 114.122 364.504 120.430 364.726 C 128.198 364.999,131.175 363.780,134.799 358.842 L 137.367 355.344 137.386 326.897 C 137.409 291.501,136.273 286.289,127.753 282.730 C 123.354 280.891,114.620 281.319,114.116 283.397 M253.944 282.188 C 253.664 282.468,253.430 290.455,253.425 299.936 C 253.414 318.018,253.165 320.611,251.438 320.611 C 249.805 320.611,250.191 322.673,251.908 323.122 C 253.388 323.509,253.435 324.163,253.435 344.203 C 253.435 357.483,253.708 364.885,254.198 364.885 C 254.689 364.885,254.962 357.389,254.962 343.923 L 254.962 322.960 261.580 322.740 C 270.895 322.429,271.259 320.752,262.076 320.450 L 255.344 320.229 255.344 302.290 L 255.344 284.351 265.458 284.138 C 273.755 283.963,275.573 283.723,275.573 282.802 C 275.573 281.622,255.092 281.040,253.944 282.188 M92.748 283.894 C 97.811 286.856,99.587 291.488,99.888 302.513 C 100.278 316.774,98.498 319.084,87.124 319.084 L 80.916 319.084 80.916 301.272 C 80.916 291.476,81.145 283.232,81.425 282.952 C 82.476 281.901,90.479 282.567,92.748 283.894 M157.390 287.977 C 155.970 297.323,155.017 304.734,154.568 309.924 C 154.332 312.653,153.829 316.775,153.449 319.084 C 153.069 321.393,152.358 326.792,151.869 331.082 C 151.125 337.608,150.744 338.956,149.536 339.339 C 147.818 339.884,147.606 341.221,149.237 341.221 C 150.560 341.221,150.825 346.173,149.710 350.062 C 148.662 353.717,147.828 366.412,148.636 366.412 C 149.346 366.412,150.679 358.865,151.602 349.618 C 152.455 341.072,152.404 341.124,159.726 341.381 L 166.031 341.603 166.568 345.038 C 166.864 346.927,167.638 352.245,168.290 356.856 C 169.644 366.439,170.026 367.939,171.111 367.939 C 171.575 367.939,171.725 366.781,171.481 365.076 C 171.256 363.502,170.525 358.263,169.856 353.435 C 168.302 342.221,167.409 336.067,166.368 329.389 C 165.910 326.450,165.230 321.641,164.857 318.702 C 164.484 315.763,163.650 309.752,163.002 305.344 C 162.355 300.935,161.491 294.752,161.083 291.603 C 159.673 280.723,158.646 279.715,157.390 287.977 M334.962 283.515 C 340.754 286.528,342.756 291.815,342.724 304.023 C 342.690 316.975,340.915 319.070,329.962 319.079 L 323.664 319.084 323.664 301.272 C 323.664 291.476,323.893 283.232,324.173 282.952 C 325.104 282.021,332.869 282.426,334.962 283.515 M358.498 283.599 C 357.716 285.637,357.957 362.848,358.749 364.101 C 360.143 366.304,360.305 362.945,360.496 327.937 C 360.717 287.360,360.143 288.556,367.951 312.409 C 372.676 326.845,373.416 327.555,375.698 319.847 C 376.507 317.118,377.449 314.198,377.792 313.359 C 378.136 312.519,379.732 307.784,381.339 302.837 C 385.410 290.306,385.677 291.849,384.766 322.690 C 383.689 359.121,383.720 364.885,384.991 364.885 C 386.094 364.885,387.045 333.574,386.997 298.855 C 386.972 280.280,386.494 279.218,383.184 290.369 C 382.297 293.357,381.271 296.489,380.903 297.328 C 380.535 298.168,379.128 302.462,377.776 306.870 C 372.755 323.245,373.776 323.779,366.140 300.787 C 360.454 283.667,359.390 281.274,358.498 283.599 M52.677 284.422 C 48.951 286.038,46.565 288.484,46.565 290.689 C 46.565 292.431,46.771 292.330,49.492 289.265 C 53.362 284.904,60.687 283.928,64.559 287.258 L 66.794 289.179 67.032 321.880 C 67.195 344.371,67.004 355.485,66.418 357.479 C 64.445 364.192,55.347 365.219,50.191 359.312 C 49.456 358.470,48.783 357.748,48.694 357.708 C 48.606 357.667,48.348 343.578,48.122 326.399 C 47.796 301.707,47.502 295.095,46.716 294.834 C 44.769 294.186,45.778 356.600,47.757 359.249 C 54.450 368.209,67.557 365.874,69.103 355.446 C 70.319 347.242,69.133 289.766,67.703 287.661 C 64.885 283.510,58.136 282.055,52.677 284.422 M294.948 284.667 C 291.512 286.228,289.308 288.786,289.321 291.200 C 289.329 292.513,289.629 292.369,291.297 290.252 C 295.308 285.163,303.208 283.733,307.400 287.338 L 309.542 289.180 309.777 322.643 C 309.993 353.366,309.902 356.315,308.671 358.647 C 306.063 363.586,300.796 364.666,295.636 361.321 C 290.766 358.163,290.840 358.717,290.840 325.155 C 290.840 298.102,290.706 294.656,289.655 294.656 C 287.545 294.656,288.357 356.374,290.505 359.249 C 296.389 367.126,307.613 366.573,311.167 358.231 C 312.989 353.955,312.637 292.991,310.767 288.873 C 308.327 283.501,301.509 281.688,294.948 284.667 M128.649 285.511 C 134.484 289.117,134.706 290.504,134.948 324.834 L 135.163 355.393 132.498 358.507 C 129.111 362.464,126.560 363.500,120.924 363.210 L 116.412 362.977 116.215 323.473 L 116.017 283.969 121.086 283.969 C 124.839 283.969,126.803 284.370,128.649 285.511 M160.401 300.587 C 161.030 305.366,162.815 318.241,164.183 327.863 C 164.661 331.221,165.100 335.172,165.159 336.641 L 165.267 339.313 159.542 339.313 L 153.817 339.313 153.870 335.115 C 153.899 332.805,154.516 326.107,155.240 320.229 C 155.965 314.351,156.858 306.966,157.226 303.817 C 158.343 294.245,159.422 293.146,160.401 300.587 " stroke="none" fill="#006699" fill-rule="evenodd"></path><path id="path4" d="M184.351 12.964 C 181.476 13.368,182.872 13.530,190.013 13.621 C 195.226 13.686,199.348 13.613,199.173 13.458 C 198.452 12.818,187.893 12.466,184.351 12.964 M170.611 14.296 C 167.642 14.720,154.270 18.178,152.290 19.033 C 151.450 19.396,149.561 20.120,148.092 20.641 C 125.193 28.768,102.822 47.378,88.598 70.135 C 84.545 76.619,78.626 88.618,78.626 90.351 C 78.626 90.871,78.343 91.624,77.997 92.023 C 77.412 92.698,76.782 94.641,73.707 105.240 C 73.054 107.493,72.546 110.241,72.579 111.347 L 72.640 113.359 73.244 111.450 C 73.577 110.401,74.277 107.653,74.801 105.344 C 83.251 68.103,112.795 34.670,149.237 21.107 C 155.945 18.611,168.691 15.292,171.956 15.191 C 173.315 15.149,175.286 14.840,176.336 14.504 C 178.534 13.800,174.987 13.671,170.611 14.296 M203.817 14.443 C 204.866 14.813,206.804 15.149,208.123 15.191 C 210.623 15.270,223.892 18.490,227.863 19.980 C 262.878 33.125,287.675 57.822,300.750 92.576 C 303.595 100.138,304.855 101.129,302.323 93.813 C 293.346 67.874,274.670 44.773,250.763 30.038 C 244.722 26.314,231.432 19.847,229.821 19.847 C 229.362 19.847,228.390 19.509,227.661 19.096 C 225.323 17.771,211.995 14.627,206.870 14.192 C 203.552 13.910,202.540 13.993,203.817 14.443 M176.718 21.824 C 175.878 22.023,172.347 22.720,168.870 23.372 C 142.009 28.410,118.004 43.817,100.620 67.176 C 96.655 72.503,93.426 77.863,94.180 77.863 C 94.359 77.863,95.243 76.613,96.144 75.086 C 101.245 66.440,112.708 53.439,120.992 46.904 C 123.092 45.248,124.981 43.708,125.191 43.482 C 127.259 41.254,141.701 33.227,150.000 29.692 C 166.177 22.801,195.119 20.247,211.450 24.269 C 223.028 27.120,223.980 27.397,228.949 29.355 C 231.646 30.418,234.012 31.128,234.207 30.932 C 235.057 30.083,222.573 25.882,211.069 23.146 C 206.594 22.081,179.954 21.056,176.718 21.824 M246.101 37.554 C 270.030 54.042,285.060 72.763,293.474 96.565 C 294.513 99.504,295.376 101.195,295.391 100.322 C 295.646 86.178,267.303 48.916,248.473 38.641 C 246.374 37.496,245.307 37.007,246.101 37.554 M92.266 80.278 C 77.883 106.253,74.531 145.403,84.696 168.702 L 85.529 170.611 85.209 168.702 C 85.033 167.653,84.217 164.218,83.394 161.069 C 79.895 147.673,78.701 126.622,80.873 116.638 C 81.357 114.415,82.279 110.191,82.922 107.252 C 84.416 100.423,87.156 92.829,90.895 85.156 C 93.601 79.603,94.591 76.079,92.266 80.278 M303.817 100.718 C 303.817 101.252,304.316 103.972,304.926 106.761 C 305.536 109.550,306.354 113.378,306.743 115.267 C 307.404 118.480,307.456 118.536,307.542 116.135 C 307.592 114.723,306.917 110.601,306.041 106.975 C 304.504 100.611,303.817 98.678,303.817 100.718 M297.310 109.160 C 297.527 110.210,298.091 114.332,298.563 118.321 C 299.035 122.309,299.598 125.744,299.812 125.954 C 300.657 126.779,299.090 112.806,298.036 110.115 C 297.420 108.540,297.093 108.111,297.310 109.160 M71.331 117.748 C 70.598 122.006,70.756 147.115,71.533 149.792 C 71.870 150.954,72.137 143.612,72.137 133.189 C 72.137 112.864,72.146 113.019,71.331 117.748 M307.915 133.206 C 307.920 141.913,308.153 146.490,308.498 144.656 C 309.244 140.689,309.239 125.682,308.490 121.756 C 308.136 119.903,307.910 124.403,307.915 133.206 M300.250 133.206 C 300.254 136.145,300.392 137.254,300.557 135.670 C 300.722 134.086,300.720 131.682,300.551 130.326 C 300.382 128.971,300.247 130.267,300.250 133.206 M298.866 145.992 C 298.577 149.036,297.823 153.870,297.189 156.733 C 296.555 159.597,296.224 162.128,296.454 162.358 C 296.684 162.587,297.076 161.790,297.326 160.586 C 297.575 159.382,298.094 157.195,298.478 155.725 C 299.334 152.447,300.377 140.458,299.806 140.458 C 299.578 140.458,299.155 142.948,298.866 145.992 M306.611 152.290 C 306.311 154.389,305.752 157.137,305.369 158.397 C 304.298 161.919,303.637 167.130,304.498 165.267 C 305.714 162.637,307.780 152.191,307.461 150.289 C 307.259 149.091,306.970 149.772,306.611 152.290 M72.519 154.911 C 72.519 159.801,80.871 185.032,82.087 183.816 C 82.240 183.663,81.053 180.278,79.449 176.292 C 76.648 169.333,75.648 165.948,73.934 157.634 C 73.052 153.352,72.519 152.327,72.519 154.911 M293.847 168.845 C 292.869 171.889,291.276 176.020,290.309 178.025 C 289.341 180.031,288.550 181.830,288.550 182.022 C 288.550 182.215,286.885 185.266,284.850 188.802 C 270.580 213.601,244.113 233.743,217.557 240.012 C 208.214 242.218,206.625 242.787,211.033 242.348 C 213.112 242.141,215.861 241.650,217.140 241.256 C 230.526 237.140,238.578 233.753,245.626 229.274 C 247.838 227.868,249.812 226.718,250.013 226.718 C 254.499 226.718,277.010 203.500,284.511 191.137 C 289.527 182.869,297.106 164.791,296.014 163.699 C 295.801 163.485,294.826 165.801,293.847 168.845 M301.535 172.310 C 298.298 181.950,293.573 190.926,284.835 204.036 C 277.367 215.242,249.349 238.931,243.565 238.931 C 243.165 238.931,242.626 239.275,242.366 239.695 C 241.402 241.254,243.468 240.346,250.437 236.145 C 270.991 223.753,286.434 206.944,296.966 185.496 C 300.089 179.137,304.192 168.060,303.632 167.500 C 303.434 167.302,302.490 169.466,301.535 172.310 M122.134 220.988 C 124.673 224.048,144.588 235.819,145.567 234.840 C 145.773 234.634,143.645 233.357,140.837 232.003 C 138.030 230.649,132.447 227.345,128.431 224.660 C 124.415 221.975,121.581 220.322,122.134 220.988 M163.399 241.192 C 164.051 241.577,166.456 242.092,168.743 242.337 C 173.956 242.894,171.498 241.655,166.031 240.970 C 163.574 240.662,162.636 240.741,163.399 241.192 M238.931 241.463 C 237.882 242.010,235.134 243.108,232.824 243.902 C 228.446 245.408,225.587 247.145,229.008 246.221 C 230.057 245.938,231.603 245.425,232.443 245.082 C 238.720 242.516,240.581 241.639,240.922 241.089 C 241.445 240.243,241.173 240.294,238.931 241.463 M143.843 243.430 C 144.130 243.894,144.821 244.275,145.378 244.275 C 145.935 244.275,147.374 244.788,148.577 245.415 C 149.779 246.042,151.279 246.533,151.908 246.506 C 153.046 246.457,148.592 244.258,145.130 243.159 C 143.884 242.764,143.483 242.848,143.843 243.430 M197.710 243.511 L 194.275 244.046 198.473 244.070 C 200.782 244.083,203.702 243.832,204.962 243.511 C 208.074 242.720,202.804 242.720,197.710 243.511 M153.817 247.097 C 154.728 247.925,164.918 250.604,165.384 250.138 C 165.762 249.760,159.608 247.723,155.725 246.942 C 154.109 246.616,153.355 246.678,153.817 247.097 M222.519 247.358 C 221.260 247.709,218.340 248.523,216.031 249.168 L 211.832 250.340 215.267 249.949 C 218.538 249.577,222.236 248.619,225.573 247.281 C 227.576 246.477,225.497 246.530,222.519 247.358 M171.759 251.125 C 172.387 251.472,175.305 251.967,178.244 252.223 C 181.510 252.509,182.994 252.433,182.061 252.028 C 180.056 251.158,170.269 250.300,171.759 251.125 M201.236 251.219 C 192.694 252.120,192.858 252.973,201.448 252.321 C 208.482 251.787,214.702 250.412,209.542 250.532 C 208.282 250.561,204.545 250.870,201.236 251.219 M204.795 277.323 C 204.467 277.830,204.027 288.861,203.817 301.836 C 203.421 326.321,203.472 326.016,200.807 319.656 C 200.411 318.712,199.209 315.954,198.135 313.527 C 197.062 311.100,196.183 308.923,196.183 308.689 C 196.183 308.454,195.153 306.036,193.893 303.314 C 192.634 300.593,191.603 298.043,191.603 297.646 C 191.603 297.250,191.272 296.329,190.868 295.600 C 190.464 294.871,189.263 292.214,188.199 289.695 C 185.144 282.465,184.393 281.298,182.795 281.298 C 181.326 281.298,181.298 282.080,181.298 323.282 C 181.298 364.758,181.316 365.267,182.824 365.267 C 184.327 365.267,184.354 364.692,184.550 329.580 C 184.659 309.952,185.018 293.893,185.349 293.893 C 185.679 293.893,187.458 297.586,189.303 302.099 C 194.273 314.263,195.508 316.960,195.918 316.550 C 196.122 316.346,195.578 314.619,194.709 312.712 C 193.841 310.804,193.130 309.064,193.130 308.843 C 193.130 308.623,192.251 306.457,191.178 304.030 C 190.104 301.604,188.937 298.931,188.584 298.092 C 186.375 292.840,185.368 290.851,184.712 290.445 C 184.235 290.150,183.969 303.373,183.969 327.499 C 183.969 357.171,183.770 364.946,183.015 364.695 C 181.579 364.216,181.623 282.061,183.059 282.061 C 183.644 282.061,187.828 291.061,193.173 303.817 C 203.477 328.409,203.802 329.107,204.695 328.555 C 205.052 328.334,205.344 316.839,205.344 303.008 C 205.344 286.753,205.613 277.863,206.107 277.863 C 206.607 277.863,206.870 292.875,206.870 321.374 C 206.870 349.873,206.607 364.885,206.107 364.885 C 205.626 364.885,205.344 359.821,205.344 351.220 L 205.344 337.554 201.904 329.503 C 200.013 325.075,198.114 320.528,197.684 319.398 C 197.255 318.269,196.737 317.512,196.534 317.716 C 196.201 318.048,197.341 321.373,199.227 325.573 C 204.093 336.407,203.816 334.993,203.827 349.068 C 203.839 363.756,204.109 365.649,206.196 365.649 C 208.169 365.649,208.483 277.589,206.513 276.833 C 205.897 276.596,205.124 276.817,204.795 277.323 M78.460 299.546 C 78.341 310.213,78.502 318.780,78.817 318.585 C 79.132 318.390,79.389 309.835,79.389 299.573 L 79.389 280.916 85.190 280.916 C 97.478 280.916,102.277 287.620,102.286 304.798 C 102.290 313.283,101.706 315.306,98.369 318.352 C 97.163 319.453,97.175 319.648,98.562 321.405 C 102.043 325.819,102.290 327.498,102.290 346.722 C 102.290 361.015,102.082 364.943,101.336 364.696 C 100.620 364.458,100.286 359.619,100.000 345.357 C 99.630 326.934,99.562 326.257,97.830 323.828 L 96.041 321.320 88.669 321.538 L 81.298 321.756 81.095 342.939 C 80.828 370.744,79.494 371.413,79.192 343.893 L 78.970 323.663 78.989 344.084 C 79.005 361.718,79.164 364.504,80.153 364.504 C 81.133 364.504,81.352 361.493,81.679 343.511 L 82.061 322.519 88.582 322.301 C 99.031 321.951,98.763 321.363,99.237 345.671 C 99.606 364.631,99.668 365.267,101.145 365.267 C 102.625 365.267,102.678 364.690,102.877 346.566 C 103.090 327.059,102.835 325.021,99.743 321.565 L 98.207 319.847 99.772 318.130 C 102.630 314.992,103.054 313.220,103.045 304.439 C 103.028 286.672,98.279 280.161,85.330 280.156 L 78.676 280.153 78.460 299.546 M321.372 280.725 C 321.372 281.040,323.643 281.181,326.420 281.038 C 336.130 280.538,339.930 282.703,343.167 290.576 C 344.176 293.030,345.010 294.418,345.020 293.660 C 345.070 289.877,340.366 283.191,336.119 281.009 C 334.276 280.063,321.375 279.814,321.372 280.725 M117.349 281.467 C 118.705 281.636,121.109 281.638,122.693 281.473 C 124.277 281.308,123.168 281.170,120.229 281.167 C 117.290 281.163,115.994 281.298,117.349 281.467 M253.108 282.116 C 252.085 283.139,251.908 285.986,251.908 301.500 C 251.908 316.959,251.737 319.750,250.763 320.123 C 250.134 320.365,249.658 321.175,249.707 321.923 C 249.790 323.197,249.817 323.199,250.145 321.947 C 250.337 321.212,250.984 320.611,251.583 320.611 C 253.069 320.611,252.914 322.289,253.388 301.145 L 253.817 282.061 264.504 281.646 L 275.191 281.232 264.749 281.074 C 256.127 280.944,254.098 281.125,253.108 282.116 M34.160 282.124 C 33.845 282.439,33.588 299.284,33.588 319.557 C 33.588 346.509,33.343 356.955,32.676 358.418 C 29.509 365.370,17.861 361.939,16.538 353.665 C 15.979 350.173,15.281 349.368,13.428 350.079 C 12.078 350.597,11.838 353.199,12.977 354.962 C 13.539 355.831,13.720 355.509,13.729 353.626 C 13.745 350.177,15.148 350.514,15.722 354.104 C 16.497 358.950,22.009 363.359,27.293 363.359 C 30.511 363.359,34.152 358.773,34.713 354.012 C 35.375 348.395,34.860 281.424,34.160 282.124 M36.465 317.363 C 36.695 357.133,36.470 359.792,32.609 363.041 C 28.084 366.849,18.817 364.423,15.194 358.482 C 14.398 357.176,13.750 356.622,13.756 357.252 C 13.770 359.066,17.884 363.254,20.879 364.506 C 28.083 367.516,34.742 364.903,36.561 358.353 C 37.517 354.907,37.777 281.680,36.832 281.679 C 36.517 281.679,36.352 297.737,36.465 317.363 M127.922 282.762 C 136.282 286.402,137.409 291.658,137.386 326.897 L 137.367 355.344 134.799 358.842 C 131.137 363.831,128.118 365.052,120.187 364.750 C 116.639 364.614,113.738 364.761,113.739 365.076 C 113.742 366.157,127.443 365.708,129.675 364.553 C 132.425 363.131,137.242 357.785,137.809 355.525 C 139.321 349.499,137.766 294.231,135.972 290.262 C 133.921 285.724,129.788 281.665,127.264 281.709 C 125.827 281.735,125.926 281.893,127.922 282.762 M156.612 286.069 C 156.151 288.483,155.608 293.206,155.405 296.565 C 154.996 303.324,155.068 303.010,157.380 287.977 C 157.848 284.933,158.485 282.443,158.796 282.443 C 159.560 282.443,161.047 288.541,161.159 292.132 C 161.209 293.730,161.538 296.069,161.891 297.328 C 162.830 300.681,161.916 288.924,160.927 284.924 C 159.695 279.945,157.680 280.480,156.612 286.069 M275.573 282.650 C 275.573 283.767,274.315 283.952,265.458 284.138 L 255.344 284.351 255.344 302.290 L 255.344 320.229 262.093 320.451 C 267.638 320.633,268.766 320.871,268.414 321.786 C 268.179 322.399,268.345 322.901,268.782 322.901 C 269.220 322.901,269.463 322.300,269.322 321.565 C 269.108 320.444,268.056 320.193,262.778 320.007 L 256.489 319.786 256.489 302.259 L 256.489 284.733 266.367 284.733 C 276.109 284.733,278.368 284.169,276.422 282.224 C 275.798 281.600,275.573 281.713,275.573 282.650 M357.602 282.634 C 356.211 286.266,357.701 365.267,359.160 365.267 C 360.661 365.267,360.690 364.692,360.886 331.719 C 361.034 306.741,361.318 298.028,361.996 297.609 C 362.687 297.181,362.639 296.546,361.797 294.972 C 360.810 293.127,360.666 296.773,360.496 327.937 C 360.305 362.945,360.143 366.304,358.749 364.101 C 357.965 362.860,357.712 285.647,358.486 283.631 C 359.070 282.109,361.062 283.467,361.080 285.399 C 361.087 286.082,361.451 287.156,361.890 287.786 C 362.477 288.629,362.552 288.226,362.172 286.260 C 361.573 283.161,360.561 281.679,359.043 281.679 C 358.451 281.679,357.803 282.109,357.602 282.634 M384.364 284.203 C 382.958 287.567,381.957 292.233,383.267 289.313 C 383.738 288.263,384.690 286.202,385.383 284.733 L 386.641 282.061 386.891 290.458 C 387.485 310.373,386.118 364.885,385.025 364.885 C 383.714 364.885,383.681 359.408,384.766 322.690 C 385.677 291.849,385.410 290.306,381.339 302.837 C 379.732 307.784,378.136 312.519,377.792 313.359 C 377.449 314.198,376.507 317.118,375.698 319.847 C 373.415 327.558,372.674 326.845,367.967 312.409 C 365.673 305.374,363.502 299.275,363.142 298.855 C 362.171 297.723,362.982 300.550,367.518 314.122 C 373.192 331.097,373.283 331.078,379.430 311.641 C 381.587 304.819,383.539 299.237,383.767 299.237 C 383.995 299.237,384.048 314.094,383.885 332.252 C 383.591 364.857,383.607 365.267,385.115 365.267 C 387.253 365.267,387.596 358.768,387.701 316.221 C 387.777 285.485,387.656 281.679,386.602 281.679 C 385.951 281.679,384.944 282.815,384.364 284.203 M50.899 284.251 C 46.964 286.548,44.454 290.492,45.678 292.453 C 46.268 293.396,46.301 293.893,45.776 293.893 C 45.226 293.893,45.045 303.895,45.197 325.824 L 45.420 357.755 47.476 360.449 C 53.135 367.866,64.691 367.405,68.671 359.602 C 70.911 355.212,71.104 292.968,68.892 288.565 C 65.869 282.549,57.326 280.501,50.899 284.251 M81.425 282.952 C 81.145 283.232,80.995 291.562,81.092 301.463 L 81.268 319.466 81.488 301.944 C 81.727 282.984,81.665 283.239,86.053 283.218 C 95.008 283.175,98.610 288.533,99.074 302.584 C 99.444 313.788,98.783 315.645,93.623 317.907 C 92.302 318.486,91.696 318.987,92.276 319.022 C 102.758 319.640,103.156 289.983,92.748 283.894 C 90.479 282.567,82.476 281.901,81.425 282.952 M293.553 284.304 C 290.387 286.150,287.610 290.255,288.304 292.063 C 288.970 293.800,290.721 293.284,291.900 291.004 C 294.244 286.471,303.522 284.863,307.040 288.379 L 308.779 290.118 308.971 323.112 C 309.119 348.444,308.940 356.550,308.202 358.015 C 305.541 363.295,296.875 363.323,293.330 358.062 C 291.607 355.505,291.603 355.429,291.603 324.643 L 291.603 293.787 289.885 294.031 L 288.168 294.275 288.168 325.954 L 288.168 357.634 289.950 360.132 C 295.388 367.756,307.728 367.404,311.605 359.515 C 313.578 355.498,313.578 292.594,311.605 288.577 C 308.629 282.519,300.085 280.497,293.553 284.304 M324.173 282.952 C 323.334 283.791,323.569 319.084,324.413 319.084 C 324.876 319.084,325.241 312.298,325.368 301.336 L 325.573 283.588 328.175 283.340 C 337.609 282.439,341.932 289.124,341.967 304.668 C 341.987 313.724,341.094 315.837,336.371 317.907 C 335.050 318.486,334.485 318.985,335.115 319.017 C 336.541 319.088,340.115 316.774,341.591 314.824 C 344.720 310.689,342.653 291.104,338.591 286.403 C 335.688 283.043,326.323 280.801,324.173 282.952 M63.771 284.417 C 69.182 286.984,69.056 286.160,69.328 320.992 C 69.461 338.206,69.361 353.710,69.103 355.446 C 67.557 365.874,54.450 368.209,47.757 359.249 C 45.778 356.600,44.769 294.186,46.716 294.834 C 47.501 295.095,47.793 301.560,48.105 325.636 L 48.500 356.107 48.677 325.000 C 48.784 306.364,48.572 293.893,48.150 293.893 C 46.887 293.893,49.599 289.502,51.736 288.087 C 54.940 285.965,62.038 286.130,64.290 288.379 L 66.031 290.117 66.245 322.914 C 66.433 351.738,66.312 355.995,65.240 358.068 C 62.607 363.159,55.001 363.476,50.954 358.662 C 49.800 357.288,48.855 356.528,48.855 356.973 C 48.855 361.492,58.382 364.759,63.126 361.866 C 67.149 359.413,67.294 357.928,67.032 321.880 L 66.794 289.179 64.559 287.258 C 60.687 283.928,53.362 284.904,49.492 289.265 C 46.771 292.330,46.565 292.431,46.565 290.689 C 46.565 285.336,57.391 281.389,63.771 284.417 M306.661 284.484 C 312.072 287.052,312.178 287.806,312.197 323.879 C 312.210 349.224,311.999 356.279,311.167 358.231 C 307.613 366.573,296.389 367.126,290.505 359.249 C 288.357 356.374,287.545 294.656,289.655 294.656 C 290.706 294.656,290.840 298.102,290.840 325.155 C 290.840 358.717,290.766 358.163,295.636 361.321 C 300.796 364.666,306.063 363.586,308.671 358.647 C 309.902 356.315,309.993 353.366,309.777 322.643 L 309.542 289.180 307.400 287.338 C 303.208 283.733,295.308 285.163,291.297 290.252 C 289.629 292.369,289.329 292.513,289.321 291.200 C 289.290 285.371,299.883 281.268,306.661 284.484 M116.215 323.473 L 116.412 362.977 120.924 363.210 C 126.560 363.500,129.111 362.464,132.498 358.507 L 135.163 355.393 134.948 324.834 C 134.675 286.079,133.959 283.969,121.086 283.969 L 116.017 283.969 116.215 323.473 M129.046 286.675 C 133.892 291.058,133.947 291.459,134.209 324.317 L 134.448 354.358 132.427 357.275 C 129.525 361.463,122.458 363.842,118.001 362.132 C 116.700 361.633,116.080 286.475,117.366 285.169 C 118.531 283.987,127.328 285.121,129.046 286.675 M362.595 289.669 C 362.595 290.568,371.719 317.628,372.482 318.991 C 373.301 320.454,374.365 318.011,377.762 306.870 C 379.106 302.462,380.493 298.328,380.845 297.685 C 381.696 296.129,382.672 291.603,382.157 291.603 C 381.933 291.603,380.166 296.670,378.230 302.863 C 372.602 320.867,373.730 320.708,368.274 304.269 C 364.029 291.477,362.595 287.791,362.595 289.669 M158.089 298.160 C 157.633 299.802,157.250 302.519,157.238 304.198 C 157.226 305.878,156.900 308.611,156.515 310.271 C 156.130 311.932,155.642 316.397,155.430 320.195 C 154.998 327.931,155.642 324.945,157.315 311.450 C 157.758 307.882,158.328 303.760,158.581 302.290 L 159.043 299.618 159.645 303.053 C 159.976 304.943,160.616 309.391,161.065 312.939 C 161.515 316.487,162.085 319.578,162.332 319.809 C 162.920 320.359,161.922 309.484,161.033 305.650 C 160.653 304.012,160.328 301.469,160.312 300.000 C 160.263 295.657,159.061 294.661,158.089 298.160 M345.199 304.508 C 345.039 313.174,343.974 316.415,340.411 319.084 C 340.130 319.294,341.057 321.135,342.470 323.175 C 343.882 325.215,345.038 326.356,345.038 325.710 C 345.038 325.065,344.609 324.081,344.084 323.525 C 341.010 320.266,340.963 319.993,343.049 317.514 C 345.691 314.374,345.909 313.214,345.613 303.817 L 345.360 295.802 345.199 304.508 M163.009 304.580 C 163.228 307.309,163.721 311.260,164.105 313.359 C 164.488 315.458,165.366 321.469,166.055 326.718 C 167.590 338.414,168.829 344.001,168.256 336.641 C 168.043 333.912,167.568 330.134,167.198 328.244 C 166.829 326.355,165.941 320.172,165.224 314.504 C 163.739 302.773,162.372 296.646,163.009 304.580 M153.963 306.870 C 153.723 308.760,152.990 314.427,152.335 319.466 C 151.251 327.800,150.823 335.862,151.565 333.969 C 151.730 333.550,152.218 330.029,152.650 326.145 C 153.082 322.261,153.793 315.950,154.231 312.120 C 154.668 308.289,154.885 304.768,154.713 304.295 C 154.540 303.822,154.203 304.981,153.963 306.870 M319.656 318.847 C 317.887 319.309,317.965 320.730,319.847 322.342 C 321.124 323.435,321.374 323.463,321.374 322.512 C 321.374 321.886,320.859 321.374,320.229 321.374 C 318.710 321.374,318.781 320.627,320.420 319.383 C 321.826 318.316,321.789 318.290,319.656 318.847 M75.573 320.202 C 75.573 320.817,76.260 321.688,77.099 322.137 C 78.134 322.691,78.626 322.700,78.626 322.164 C 78.626 321.730,78.074 321.374,77.399 321.374 C 76.622 321.374,76.334 320.954,76.612 320.229 C 76.854 319.599,76.719 319.084,76.312 319.084 C 75.905 319.084,75.573 319.587,75.573 320.202 M163.080 325.573 C 163.304 328.511,163.800 332.118,164.182 333.588 C 165.368 338.147,165.346 338.168,159.496 338.168 L 154.106 338.168 154.517 332.634 C 154.869 327.886,154.817 327.533,154.150 330.153 C 153.722 331.832,153.473 334.580,153.595 336.260 L 153.817 339.313 159.085 339.541 C 165.838 339.834,165.942 339.697,164.873 331.968 C 163.564 322.500,162.575 318.977,163.080 325.573 M324.199 321.857 C 323.905 322.151,323.664 331.781,323.664 343.257 C 323.664 361.987,323.253 366.572,321.880 363.168 C 321.602 362.480,321.478 362.467,321.434 363.123 C 321.326 364.764,323.110 365.149,324.162 363.711 C 324.963 362.615,325.191 357.863,325.191 342.221 L 325.191 322.137 331.546 322.137 C 341.786 322.137,341.514 321.524,341.985 345.671 C 342.354 364.631,342.416 365.267,343.893 365.267 C 345.378 365.267,345.420 364.751,345.440 346.374 L 345.461 327.480 345.236 346.183 C 345.045 362.100,344.843 364.885,343.880 364.885 C 342.910 364.885,342.748 362.169,342.748 345.914 C 342.748 327.415,342.705 326.879,341.002 324.350 L 339.257 321.756 331.995 321.539 C 328.001 321.420,324.493 321.563,324.199 321.857 M251.919 342.512 C 251.925 353.348,252.136 362.987,252.390 363.931 C 252.919 365.907,255.333 366.246,256.025 364.441 C 256.842 362.314,256.557 322.901,255.725 322.901 C 255.235 322.901,254.962 330.407,254.962 343.893 C 254.962 357.379,254.689 364.885,254.198 364.885 C 253.708 364.885,253.435 357.521,253.435 344.320 C 253.435 331.433,253.150 323.578,252.672 323.282 C 252.170 322.973,251.912 329.570,251.919 342.512 M150.068 337.023 C 149.805 338.073,149.081 338.931,148.459 338.931 C 147.837 338.931,147.328 339.618,147.328 340.458 C 147.328 341.340,147.837 341.985,148.534 341.985 C 149.555 341.985,149.675 342.773,149.318 347.137 C 149.041 350.529,149.124 351.638,149.563 350.382 C 150.742 347.007,150.535 341.221,149.237 341.221 C 147.567 341.221,147.836 339.879,149.618 339.313 C 150.594 339.003,151.145 338.158,151.145 336.971 C 151.145 334.579,150.676 334.601,150.068 337.023 M152.747 342.939 C 152.390 343.884,151.874 346.889,151.602 349.618 C 150.009 365.582,147.535 372.991,148.353 359.351 C 148.655 354.304,148.582 353.161,148.096 355.344 C 146.796 361.181,147.134 367.176,148.762 367.176 C 150.250 367.176,151.172 363.084,152.316 351.401 C 152.556 348.951,152.924 345.816,153.134 344.434 L 153.516 341.922 159.378 342.144 L 165.240 342.366 166.220 348.855 C 167.659 358.386,168.763 362.869,168.287 357.252 C 167.954 353.323,166.567 344.315,165.965 342.176 C 165.419 340.232,153.511 340.920,152.747 342.939 M168.702 344.429 C 168.702 345.914,169.183 350.007,169.771 353.526 C 171.544 364.147,171.876 367.939,171.033 367.939 C 170.607 367.939,170.050 366.994,169.795 365.840 C 169.007 362.268,168.825 362.116,168.763 364.983 C 168.691 368.257,170.288 370.089,171.714 368.370 C 172.426 367.512,172.444 365.800,171.791 360.918 C 171.325 357.432,170.601 351.851,170.183 348.516 C 169.360 341.943,168.702 340.130,168.702 344.429 " stroke="none" fill="#83b5cd" fill-rule="evenodd"></path></g></svg>