<?xml version="1.0" standalone="no"?>
<!DOCTYPE svg PUBLIC "-//W3C//DTD SVG 20010904//EN"
 "http://www.w3.org/TR/2001/REC-SVG-20010904/DTD/svg10.dtd">
<svg version="1.0" xmlns="http://www.w3.org/2000/svg"
 width="320.000000pt" height="305.000000pt" viewBox="0 0 320.000000 305.000000"
 preserveAspectRatio="xMidYMid meet">
<metadata>
Created by potrace 1.14, written by Peter Selinger 2001-2017
</metadata>
<g transform="translate(0.000000,305.000000) scale(0.100000,-0.100000)"
fill="#000000" stroke="none">
<path d="M1367 2930 c-380 -69 -676 -348 -773 -730 -27 -105 -27 -325 0 -430
71 -277 228 -489 456 -613 78 -43 256 -104 325 -112 28 -3 68 -8 91 -11 57 -8
223 13 322 42 303 88 548 334 637 638 130 451 -80 928 -500 1131 -137 67 -217
86 -375 90 -74 2 -157 0 -183 -5z m332 -70 c213 -44 420 -185 552 -376 43 -63
107 -203 115 -250 3 -22 11 -48 17 -59 19 -37 21 -272 3 -366 -18 -90 -64
-206 -118 -297 -43 -73 -207 -237 -280 -280 -172 -101 -318 -138 -508 -129
-110 5 -139 11 -242 46 -141 47 -208 86 -311 181 -95 89 -153 169 -213 295
-114 240 -110 506 11 752 182 369 577 565 974 483z"/>
<path d="M1638 623 l-3 -208 -80 188 c-44 104 -85 190 -90 190 -14 3 -19 -643
-5 -657 7 -7 10 89 10 294 0 182 4 300 9 294 5 -5 43 -90 85 -189 l76 -180 0
-113 c0 -73 4 -111 10 -107 14 8 14 695 0 695 -6 0 -11 -81 -12 -207z"/>
<path d="M630 656 c0 -114 -3 -156 -12 -160 -10 -5 -10 -7 0 -12 9 -4 12 -49
12 -175 0 -106 4 -169 10 -169 6 0 10 63 10 170 l0 170 59 0 c88 0 91 -8 91
-197 0 -95 4 -153 10 -153 6 0 10 56 10 148 0 125 -3 153 -19 182 -18 34 -18
35 1 63 18 24 20 40 16 110 -7 130 -45 177 -143 177 l-45 0 0 -154z m119 118
c35 -25 51 -75 51 -158 0 -69 -2 -76 -26 -95 -19 -15 -41 -21 -75 -21 l-49 0
0 145 0 145 38 0 c21 0 48 -7 61 -16z"/>
<path d="M2578 804 c-5 -4 -8 -74 -8 -155 0 -108 -3 -149 -12 -153 -10 -5 -10
-7 0 -12 9 -4 12 -49 12 -175 0 -106 4 -169 10 -169 6 0 10 63 10 170 l0 170
58 0 c89 0 92 -5 92 -188 0 -90 4 -153 10 -157 7 -4 10 47 10 147 0 132 -3
157 -19 184 -18 29 -18 31 0 53 14 18 19 40 19 91 0 92 -8 123 -39 161 -23 27
-35 33 -82 36 -30 3 -57 1 -61 -3z m128 -45 c27 -28 29 -37 33 -120 3 -83 1
-93 -20 -115 -18 -20 -32 -24 -76 -24 l-53 0 0 145 0 145 43 0 c35 0 49 -6 73
-31z"/>
<path d="M910 465 l0 -335 51 0 c58 0 99 20 123 60 13 24 16 63 16 252 0 244
-7 286 -50 330 -24 24 -36 28 -84 28 l-56 0 0 -335z m128 293 c38 -41 42 -72
42 -314 l0 -236 -29 -29 c-24 -24 -38 -29 -75 -29 l-46 0 0 315 0 315 43 0
c32 0 49 -6 65 -22z"/>
<path d="M1260 793 c0 -5 -12 -108 -26 -230 -22 -177 -30 -223 -42 -223 -12 0
-12 -3 -2 -15 12 -15 11 -35 -6 -162 -4 -26 -2 -43 4 -43 5 0 12 28 16 63 4
34 10 79 13 99 l6 38 52 0 53 0 12 -87 c7 -49 16 -97 21 -108 17 -42 9 34 -36
345 -25 172 -45 317 -45 322 0 4 -4 8 -10 8 -5 0 -10 -3 -10 -7z m59 -425 c1
-27 -1 -28 -44 -28 -53 0 -51 -11 -30 175 23 197 25 198 51 30 12 -82 23 -162
23 -177z"/>
<path d="M2027 793 c-4 -3 -7 -73 -7 -154 0 -108 -3 -149 -12 -153 -10 -5 -10
-7 0 -12 9 -4 12 -48 12 -169 0 -99 4 -166 10 -170 7 -4 10 53 10 164 l0 171
55 0 c30 0 55 5 55 10 0 6 -25 10 -55 10 l-55 0 0 145 0 145 85 0 c50 0 85 4
85 10 0 11 -172 14 -183 3z"/>
<path d="M414 776 c-29 -13 -44 -33 -44 -58 0 -6 13 4 29 21 21 23 38 31 63
31 75 0 78 -14 78 -313 0 -242 -1 -256 -21 -281 -26 -33 -68 -34 -106 -2 l-28
24 -5 254 -6 253 -2 -256 c-2 -245 -1 -257 18 -282 27 -34 78 -44 118 -23 49
25 54 64 50 348 -3 234 -4 249 -24 268 -26 27 -81 34 -120 16z"/>
<path d="M2365 781 c-27 -12 -60 -49 -50 -59 4 -4 10 -1 12 6 7 18 57 42 88
42 14 0 34 -9 45 -20 19 -19 20 -33 20 -288 0 -268 0 -269 -23 -290 -29 -28
-67 -28 -101 -1 l-26 20 0 255 c0 163 -4 254 -10 254 -6 0 -10 -91 -10 -253 0
-283 1 -288 69 -308 30 -9 44 -9 67 2 52 25 54 40 52 332 l-3 269 -28 24 c-28
24 -65 30 -102 15z"/>
<path d="M2872 460 l3 -335 5 295 5 295 45 -128 c25 -71 50 -129 55 -129 6 0
27 52 48 117 20 65 40 121 43 124 4 3 3 -123 0 -282 -5 -179 -4 -287 2 -287
11 0 28 647 18 657 -9 10 -10 8 -63 -152 l-50 -150 -48 145 c-26 80 -51 149
-56 155 -5 5 -8 -134 -7 -325z"/>
</g>
</svg>
